Love Anthem For World Peace (STR) Version 1 


Video

 Format : AVC
 Format/Info : Advanced Video Codec
 Format profile : Baseline@L3.0
 Format settings, CABAC : No
 Format settings, ReFrames : 1 frame
 Codec ID : avc1
 Codec ID/Info : Advanced Video Coding
 Duration : 2mn 41s
 Bit rate mode : Variable
 Bit rate : 463 Kbps
 Maximum bit rate : 2 279 Kbps
 Width : 640 pixels
 Height : 360 pixels
 Display aspect ratio : 16:9
 Frame rate mode : Constant
 Frame rate : 25.000 fps
 Color space : YUV
 Chroma subsampling : 4:2:0
 Bit depth : 8 bits
 Scan type : Progressive
 Bits/(Pixel*Frame) : 0.080
 Stream size : 8.91 MiB (83%)

Audio

 Format : AAC
 Format/Info : Advanced Audio Codec
 Format version : Version 4
 Format profile : LC
 Format settings, SBR : No
 Codec ID : 40
 Duration : 2mn 41s
 Bit rate mode : Variable
 Bit rate : 91.7 Kbps
 Maximum bit rate : 163 Kbps
 Channel(s) : 2 channels
 Channel positions : Front: L R
 Sampling rate : 44.1 KHz
 Stream size : 1.77 MiB (16%)

Screens
 
http://www.shotpix.com/images/76020371220789829870.jpg
 
http://www.shotpix.com/images/73810000356939011579.jpg
 
http://www.shotpix.com/images/52343509081074176320.jpg
 
http://www.shotpix.com/images/46916200715119035756.jpg
 
http://www.shotpix.com/images/07554295707614420615.jpg